<?xml version="1.0" encoding="iso-8859-1"?>
<!-- Generator: Adobe Illustrator 16.0.0, SVG Export Plug-In . SVG Version: 6.00 Build 0)  -->
<!DOCTYPE svg PUBLIC "-//W3C//DTD SVG 1.1//EN" "http://www.w3.org/Graphics/SVG/1.1/DTD/svg11.dtd">
<svg version="1.1" id="Capa_1" xmlns="http://www.w3.org/2000/svg" xmlns:xlink="http://www.w3.org/1999/xlink" x="0px" y="0px"
	 width="487.971px" height="487.972px" viewBox="0 0 487.971 487.972" style="enable-background:new 0 0 487.971 487.972;"
	 xml:space="preserve">
<g>
	<g>
		<path d="M355.024,0H86.03C53.211,0,26.385,26.77,26.385,59.587v368.947c0,32.817,26.826,59.438,59.645,59.438h315.911
			c32.818,0,59.646-26.619,59.646-59.438V109.002L355.024,0z M401.94,445.576H86.03c-9.412,0-17.238-7.619-17.238-17.042V59.587
			c0-9.422,7.826-17.191,17.238-17.191h248.377v47.611c0,21.001,17.029,38.083,38.021,38.302l46.75,0.466v299.76
			C419.178,437.957,411.352,445.576,401.94,445.576z"/>
		<path d="M181.313,259.062c41.536,0,75.235-33.673,75.235-75.229c0-41.552-33.699-75.23-75.235-75.23
			c-41.546,0-75.225,33.679-75.225,75.23C106.088,225.389,139.766,259.062,181.313,259.062z"/>
		<path d="M371.786,240.56c-6.344-4.265-14.429-5.1-21.509-2.212l-227.562,92.608c-10.075,4.104-16.73,13.899-16.73,24.784v24.878
			c0,11.475,9.402,20.83,20.866,20.83h234.27c11.464,0,20.865-9.355,20.865-20.83V259.627
			C381.986,251.979,378.129,244.831,371.786,240.56z"/>
	</g>
</g>
<g>
</g>
<g>
</g>
<g>
</g>
<g>
</g>
<g>
</g>
<g>
</g>
<g>
</g>
<g>
</g>
<g>
</g>
<g>
</g>
<g>
</g>
<g>
</g>
<g>
</g>
<g>
</g>
<g>
</g>
</svg>
