<?xml version="1.0" encoding="iso-8859-1"?>
<!-- Generator: Adobe Illustrator 16.0.0, SVG Export Plug-In . SVG Version: 6.00 Build 0)  -->
<!DOCTYPE svg PUBLIC "-//W3C//DTD SVG 1.1//EN" "http://www.w3.org/Graphics/SVG/1.1/DTD/svg11.dtd">
<svg version="1.1" id="Capa_1" xmlns="http://www.w3.org/2000/svg" xmlns:xlink="http://www.w3.org/1999/xlink" x="0px" y="0px"
	 width="489.54px" height="489.54px" viewBox="0 0 489.54 489.54" style="enable-background:new 0 0 489.54 489.54;"
	 xml:space="preserve">
<g>
	<g>
		<path d="M441.835,180.384h-5.575v-70.458L343.341,0H107.638C77.655,0,53.3,26.482,53.3,59.346v121.039h-5.449
			c-23.578,0-42.853,18.854-42.853,42.433v117.007c0,23.589,19.275,42.591,42.853,42.591H53.3v47.458
			c0,32.858,24.355,59.666,54.338,59.666h274.378c30.015,0,54.244-26.808,54.244-59.666v-47.458h5.575
			c23.589,0,42.706-19.002,42.706-42.591V222.817C484.541,199.239,465.424,180.384,441.835,180.384z M52.386,243.945
			c-10.466,0-18.938-8.473-18.938-18.935c0-10.455,8.472-18.938,18.938-18.938c10.457,0,18.929,8.483,18.929,18.938
			C71.314,235.473,62.842,243.945,52.386,243.945z M394.079,429.872c0,9.228-5.585,17.474-12.063,17.474H107.638
			c-6.445,0-12.157-8.247-12.157-17.474v-47.458h298.598V429.872z M394.079,180.384H95.481V59.346
			c0-9.228,5.711-17.154,12.157-17.154h210.403v45.021c0,23.751,19.044,43.079,42.801,43.32l33.237,0.335V180.384z"/>
		<path d="M148.476,430.701h187.696c8.755,0,15.853-7.061,15.853-15.815c0-8.76-7.098-15.82-15.853-15.82H148.476
			c-8.756,0-15.853,7.061-15.853,15.82C132.623,423.641,139.719,430.701,148.476,430.701z"/>
	</g>
</g>
<g>
</g>
<g>
</g>
<g>
</g>
<g>
</g>
<g>
</g>
<g>
</g>
<g>
</g>
<g>
</g>
<g>
</g>
<g>
</g>
<g>
</g>
<g>
</g>
<g>
</g>
<g>
</g>
<g>
</g>
</svg>
