<?xml version="1.0" encoding="iso-8859-1"?>
<!-- Generator: Adobe Illustrator 16.0.0, SVG Export Plug-In . SVG Version: 6.00 Build 0)  -->
<!DOCTYPE svg PUBLIC "-//W3C//DTD SVG 1.1//EN" "http://www.w3.org/Graphics/SVG/1.1/DTD/svg11.dtd">
<svg version="1.1" id="Capa_1" xmlns="http://www.w3.org/2000/svg" xmlns:xlink="http://www.w3.org/1999/xlink" x="0px" y="0px"
	 width="487.678px" height="487.678px" viewBox="0 0 487.678 487.678" style="enable-background:new 0 0 487.678 487.678;"
	 xml:space="preserve">
<g>
	<g>
		<path d="M243.833,0C109.385,0,0.002,109.389,0.002,243.841c0,134.454,109.383,243.837,243.831,243.837
			c134.454,0,243.842-109.383,243.842-243.837C487.675,109.389,378.288,0,243.833,0z M243.833,412.941
			c-93.238,0-169.095-75.856-169.095-169.101c0-93.242,75.857-169.104,169.095-169.104c93.243,0,169.104,75.862,169.104,169.104
			C412.94,337.084,337.077,412.941,243.833,412.941z"/>
		<path d="M277.083,201.641l-24.293-74.944c-1.257-3.879-4.87-6.589-8.941-6.589c-4.077,0-7.684,2.58-8.946,6.448l-24.299,75.112
			c-1.256,3.872-4.869,6.828-8.946,6.828h-78.427c-4.076,0-7.694,2.278-8.946,6.162c-1.257,3.884,0.141,7.956,3.452,10.338
			l63.34,45.558c3.321,2.394,4.713,6.621,3.44,10.511l-24.22,74.143c-1.267,3.873,0.105,8.111,3.399,10.51
			c3.299,2.396,7.762,2.396,11.062,0.005l63.559-46.131c3.295-2.394,7.763-2.394,11.058,0.005l63.548,46.268
			c3.295,2.397,7.763,2.403,11.062,0.004c3.3-2.393,4.676-6.641,3.416-10.52l-24.232-74.365c-1.266-3.896,0.125-8.154,3.447-10.547
			l63.324-45.61c3.315-2.388,4.708-6.282,3.456-10.166c-1.256-3.884-4.869-6.162-8.95-6.162H286.03
			C281.953,208.496,278.344,205.52,277.083,201.641z"/>
	</g>
</g>
<g>
</g>
<g>
</g>
<g>
</g>
<g>
</g>
<g>
</g>
<g>
</g>
<g>
</g>
<g>
</g>
<g>
</g>
<g>
</g>
<g>
</g>
<g>
</g>
<g>
</g>
<g>
</g>
<g>
</g>
</svg>
