<?xml version="1.0" encoding="iso-8859-1"?>
<!-- Generator: Adobe Illustrator 16.0.0, SVG Export Plug-In . SVG Version: 6.00 Build 0)  -->
<!DOCTYPE svg PUBLIC "-//W3C//DTD SVG 1.1//EN" "http://www.w3.org/Graphics/SVG/1.1/DTD/svg11.dtd">
<svg version="1.1" id="Capa_1" xmlns="http://www.w3.org/2000/svg" xmlns:xlink="http://www.w3.org/1999/xlink" x="0px" y="0px"
	 width="485.917px" height="485.917px" viewBox="0 0 485.917 485.917" style="enable-background:new 0 0 485.917 485.917;"
	 xml:space="preserve">
<g>
	<g>
		<path d="M374.441,0H111.479C50.008,0,0,50.009,0,111.475v262.966c0,61.467,50.008,111.476,111.479,111.476h262.963
			c61.466,0,111.475-50.009,111.475-111.476V111.475C485.916,50.009,435.907,0,374.441,0z M424.968,374.648
			c0,28.021-22.72,50.735-50.743,50.735H111.268c-28.022,0-50.736-22.714-50.736-50.735V111.69
			c0-28.022,22.714-50.742,50.736-50.742h262.957c28.023,0,50.743,22.72,50.743,50.742V374.648z"/>
		<path d="M402.691,124.938c0-23.269-18.863-42.138-42.133-42.138H124.938c-23.269,0-42.138,18.869-42.138,42.138v235.623
			c0,23.27,18.869,42.132,42.138,42.132h235.621c23.27,0,42.133-18.862,42.133-42.132V124.938z M354.342,354.343H131.573v-222.77
			h222.769V354.343z"/>
	</g>
</g>
<g>
</g>
<g>
</g>
<g>
</g>
<g>
</g>
<g>
</g>
<g>
</g>
<g>
</g>
<g>
</g>
<g>
</g>
<g>
</g>
<g>
</g>
<g>
</g>
<g>
</g>
<g>
</g>
<g>
</g>
</svg>
