<?xml version="1.0" encoding="iso-8859-1"?>
<!-- Generator: Adobe Illustrator 16.0.0, SVG Export Plug-In . SVG Version: 6.00 Build 0)  -->
<!DOCTYPE svg PUBLIC "-//W3C//DTD SVG 1.1//EN" "http://www.w3.org/Graphics/SVG/1.1/DTD/svg11.dtd">
<svg version="1.1" id="Capa_1" xmlns="http://www.w3.org/2000/svg" xmlns:xlink="http://www.w3.org/1999/xlink" x="0px" y="0px"
	 width="489.87px" height="489.869px" viewBox="0 0 489.87 489.869" style="enable-background:new 0 0 489.87 489.869;"
	 xml:space="preserve">
<g>
	<g>
		<path d="M411.451,0H78.417C64.509,0,53.235,11.28,53.235,25.187v439.495c0,13.907,11.274,25.188,25.182,25.188h333.035
			c13.914,0,25.183-11.28,25.183-25.188V25.187C436.633,11.28,425.365,0,411.451,0z M172.919,385.939
			c0,6.283-5.101,11.384-11.385,11.384h-39.162c-6.29,0-11.385-5.102-11.385-11.384v-39.162c0-6.29,5.095-11.385,11.385-11.385
			h39.162c6.284,0,11.385,5.095,11.385,11.385V385.939z M172.919,287.13c0,6.289-5.101,11.384-11.385,11.384h-39.162
			c-6.29,0-11.385-5.095-11.385-11.384v-39.163c0-6.284,5.095-11.383,11.385-11.383h39.162c6.284,0,11.385,5.099,11.385,11.383
			V287.13z M272.422,385.939c0,6.283-5.096,11.384-11.385,11.384h-39.163c-6.289,0-11.385-5.102-11.385-11.384v-39.162
			c0-6.29,5.096-11.385,11.385-11.385h39.162c6.289,0,11.384,5.095,11.384,11.385v39.162H272.422z M272.422,287.13
			c0,6.289-5.096,11.384-11.385,11.384h-39.163c-6.289,0-11.385-5.095-11.385-11.384v-39.163c0-6.284,5.096-11.383,11.385-11.383
			h39.162c6.289,0,11.384,5.099,11.384,11.383v39.163H272.422z M371.929,385.939c0,6.283-5.101,11.384-11.39,11.384h-39.163
			c-6.289,0-11.384-5.102-11.384-11.384v-39.162c0-6.29,5.095-11.385,11.384-11.385h39.163c6.29,0,11.39,5.095,11.39,11.385V385.939
			z M371.929,287.13c0,6.289-5.101,11.384-11.39,11.384h-39.163c-6.289,0-11.384-5.095-11.384-11.384v-39.163
			c0-6.284,5.095-11.383,11.384-11.383h39.163c6.29,0,11.39,5.099,11.39,11.383V287.13z M385.836,156.12
			c0,10.236-8.292,18.534-18.533,18.534h-244.05c-10.226,0-18.528-8.297-18.528-18.534V74.894c0-10.231,8.303-18.527,18.528-18.527
			h244.05c10.241,0,18.533,8.296,18.533,18.527V156.12z"/>
		<path d="M340.265,68.277c-12.526,0-22.617,10.148-22.617,22.674v51.01c0,12.526,10.09,22.674,22.617,22.674
			c12.516,0,22.61-10.148,22.61-22.674v-51.01C362.876,78.425,352.781,68.277,340.265,68.277z"/>
	</g>
</g>
<g>
</g>
<g>
</g>
<g>
</g>
<g>
</g>
<g>
</g>
<g>
</g>
<g>
</g>
<g>
</g>
<g>
</g>
<g>
</g>
<g>
</g>
<g>
</g>
<g>
</g>
<g>
</g>
<g>
</g>
</svg>
