<?xml version="1.0" encoding="iso-8859-1"?>
<!-- Generator: Adobe Illustrator 16.0.0, SVG Export Plug-In . SVG Version: 6.00 Build 0)  -->
<!DOCTYPE svg PUBLIC "-//W3C//DTD SVG 1.1//EN" "http://www.w3.org/Graphics/SVG/1.1/DTD/svg11.dtd">
<svg version="1.1" id="Capa_1" xmlns="http://www.w3.org/2000/svg" xmlns:xlink="http://www.w3.org/1999/xlink" x="0px" y="0px"
	 width="489.839px" height="489.839px" viewBox="0 0 489.839 489.839" style="enable-background:new 0 0 489.839 489.839;"
	 xml:space="preserve">
<g>
	<g>
		<path d="M331.365,226.945l-148.351-94.778c-8.49-5.433-19.55-4.619-27.169,1.982c-7.62,6.602-9.991,17.435-5.824,26.621
			l34.471,75.971c1.176,2.605,1.988,5.377,1.988,8.178c0,2.802-0.813,5.572-1.988,8.179l-34.471,75.971
			c-4.167,9.188-1.796,20.02,5.824,26.621c7.619,6.602,18.679,7.414,27.169,1.982l148.351-94.779
			c6.209-3.963,10.488-10.652,10.488-17.974C341.853,237.598,337.574,230.908,331.365,226.945z"/>
		<path d="M356.382,0H86.36C53.415,0,26.574,26.955,26.574,59.895v370.367c0,32.937,26.84,59.577,59.786,59.577h317.118
			c32.945,0,59.787-26.642,59.787-59.577V109.506L356.382,0z M420.519,430.262c0,9.449-7.586,17.412-17.041,17.412H86.36
			c-9.455,0-17.041-7.963-17.041-17.412V59.894c0-9.448,7.586-17.15,17.041-17.15h249.245v47.695
			c0,21.081,17.012,38.227,38.08,38.44l46.834,0.479V430.262z"/>
	</g>
</g>
<g>
</g>
<g>
</g>
<g>
</g>
<g>
</g>
<g>
</g>
<g>
</g>
<g>
</g>
<g>
</g>
<g>
</g>
<g>
</g>
<g>
</g>
<g>
</g>
<g>
</g>
<g>
</g>
<g>
</g>
</svg>
