<?xml version="1.0" encoding="iso-8859-1"?>
<!-- Generator: Adobe Illustrator 16.0.0, SVG Export Plug-In . SVG Version: 6.00 Build 0)  -->
<!DOCTYPE svg PUBLIC "-//W3C//DTD SVG 1.1//EN" "http://www.w3.org/Graphics/SVG/1.1/DTD/svg11.dtd">
<svg version="1.1" id="Capa_1" xmlns="http://www.w3.org/2000/svg" xmlns:xlink="http://www.w3.org/1999/xlink" x="0px" y="0px"
	 width="486.828px" height="486.828px" viewBox="0 0 486.828 486.828" style="enable-background:new 0 0 486.828 486.828;"
	 xml:space="preserve">
<g>
	<path d="M442.932,74.497l-40.627-56.074c-8.191-11.299-21.188-18.167-36.051-18.315C365.311,0.098,59.806,0,59.806,0
		C46.728,0,36.471,10.479,36.471,23.549c0,0,0.601,388.521,0.767,389.523c2.043,12.395,9.231,23.43,19.748,30.27l56.856,37.119
		c6.379,4.158,13.752,6.367,21.355,6.367h251.106c35.346,0,64.055-28.773,64.055-64.117V97.428
		C450.357,89.116,447.795,81.176,442.932,74.497z M202.654,78.977c25.192,0,45.604,20.417,45.604,45.594
		c0,25.183-20.412,45.598-45.604,45.598c-25.172,0-45.594-20.415-45.594-45.598C157.06,99.394,177.482,78.977,202.654,78.977z
		 M138.641,287.886l16.449-82.055c2.209-11.087,11.937-18.938,23.242-18.938h48.663c11.295,0,21.022,7.815,23.243,18.896
		l16.429,82.174c0.403,2.008-0.115,4.087-1.411,5.674c-1.296,1.581-3.246,2.655-5.289,2.655H145.351
		c-2.054,0-3.982-1.074-5.289-2.655C138.765,292.051,138.247,289.893,138.641,287.886z M406.6,422.711
		c0,11.326-8.973,20.359-20.297,20.359H136.535l-40.791-26.438h251.924c13.08,0,23.379-10.875,23.379-23.947V49.491l35.553,49.4
		V422.711L406.6,422.711z"/>
</g>
<g>
</g>
<g>
</g>
<g>
</g>
<g>
</g>
<g>
</g>
<g>
</g>
<g>
</g>
<g>
</g>
<g>
</g>
<g>
</g>
<g>
</g>
<g>
</g>
<g>
</g>
<g>
</g>
<g>
</g>
</svg>
