<?xml version="1.0" encoding="iso-8859-1"?>
<!-- Generator: Adobe Illustrator 16.0.0, SVG Export Plug-In . SVG Version: 6.00 Build 0)  -->
<!DOCTYPE svg PUBLIC "-//W3C//DTD SVG 1.1//EN" "http://www.w3.org/Graphics/SVG/1.1/DTD/svg11.dtd">
<svg version="1.1" id="Capa_1" xmlns="http://www.w3.org/2000/svg" xmlns:xlink="http://www.w3.org/1999/xlink" x="0px" y="0px"
	 width="490.071px" height="490.071px" viewBox="0 0 490.071 490.071" style="enable-background:new 0 0 490.071 490.071;"
	 xml:space="preserve">
<g>
	<g>
		<path d="M426.334,133.334h-11.076L289.938,18.846c-24.629-22.474-62.812-22.059-86.931,0.947L84.006,133.334H63.654
			C28.491,133.334,0,161.852,0,197.02v227.1c0,35.18,28.491,63.691,63.654,63.691h362.68c35.174,0,63.737-28.512,63.737-63.691
			v-227.1C490.071,161.852,461.508,133.334,426.334,133.334z M238.993,57.505c4.393-4.185,11.325-4.252,15.79-0.172l83.192,76
			H159.516L238.993,57.505z M437.784,424.12c0,6.383-5.444,11.404-11.815,11.404H63.426c-6.381,0-11.742-5.021-11.742-11.404
			V197.093c0-6.381,5.361-11.465,11.742-11.465h362.543c6.371,0,11.815,5.084,11.815,11.465V424.12z"/>
		<path d="M125.644,296.655c26.128,0,47.322-21.178,47.322-47.311c0-26.129-21.194-47.318-47.322-47.318
			c-26.129,0-47.312,21.189-47.312,47.318C78.332,275.477,99.515,296.655,125.644,296.655z"/>
		<path d="M401.643,245.571c-6.35-4.591-14.459-5.855-21.911-3.399l-283.35,93.739c-10.764,3.564-17.946,13.625-17.946,24.967
			v31.816c0,6.477,5.153,11.82,11.617,11.82h310.111c6.475,0,11.472-5.346,11.472-11.82v-127.33
			C411.636,257.52,407.992,250.157,401.643,245.571z"/>
	</g>
</g>
<g>
</g>
<g>
</g>
<g>
</g>
<g>
</g>
<g>
</g>
<g>
</g>
<g>
</g>
<g>
</g>
<g>
</g>
<g>
</g>
<g>
</g>
<g>
</g>
<g>
</g>
<g>
</g>
<g>
</g>
</svg>
