<?xml version="1.0" encoding="iso-8859-1"?>
<!-- Generator: Adobe Illustrator 16.0.0, SVG Export Plug-In . SVG Version: 6.00 Build 0)  -->
<!DOCTYPE svg PUBLIC "-//W3C//DTD SVG 1.1//EN" "http://www.w3.org/Graphics/SVG/1.1/DTD/svg11.dtd">
<svg version="1.1" id="Capa_1" xmlns="http://www.w3.org/2000/svg" xmlns:xlink="http://www.w3.org/1999/xlink" x="0px" y="0px"
	 width="491.669px" height="491.669px" viewBox="0 0 491.669 491.669" style="enable-background:new 0 0 491.669 491.669;"
	 xml:space="preserve">
<g>
	<g>
		<path d="M464.063,211.834h-15.209c-5.235-31.496-17.61-60.576-35.425-85.512l10.757-10.757c10.781-10.781,10.781-28.261,0-39.042
			l-9.041-9.041c-10.78-10.781-28.26-10.781-39.041,0l-10.758,10.757c-24.936-17.813-54.016-30.189-85.512-35.424V27.606
			C279.835,12.36,267.475,0,252.229,0h-12.787c-15.247-0.001-27.607,12.359-27.607,27.606v15.209
			c-31.495,5.236-60.576,17.611-85.512,35.425l-10.758-10.758c-10.78-10.781-28.261-10.781-39.041,0l-9.041,9.041
			c-10.781,10.781-10.781,28.261,0,39.042l10.757,10.757c-17.813,24.936-30.188,54.016-35.425,85.512H27.606
			C12.36,211.834,0,224.194,0,239.441v12.786c0,15.248,12.36,27.607,27.606,27.607h15.209c5.236,31.496,17.611,60.576,35.425,85.512
			l-10.757,10.758c-10.781,10.78-10.781,28.261,0,39.041l9.041,9.041c10.78,10.781,28.261,10.781,39.041,0l10.758-10.757
			c24.936,17.813,54.017,30.189,85.512,35.425v15.208c0,15.247,12.36,27.607,27.606,27.607h12.788
			c15.246,0,27.605-12.36,27.605-27.607v-15.208c31.496-5.234,60.576-17.61,85.512-35.425l10.758,10.757
			c10.781,10.781,28.261,10.781,39.041,0l9.041-9.041c10.781-10.78,10.781-28.261,0-39.041l-10.757-10.758
			c17.813-24.936,30.189-54.016,35.425-85.512h15.21c15.245,0,27.605-12.359,27.605-27.607v-12.786
			C491.67,224.194,479.31,211.834,464.063,211.834z M245.835,375.665c-71.703,0-129.831-58.127-129.831-129.831
			s58.128-129.831,129.831-129.831c71.705,0,129.831,58.127,129.831,129.831S317.54,375.665,245.835,375.665z"/>
		<circle cx="245.835" cy="245.834" r="71.831"/>
	</g>
</g>
<g>
</g>
<g>
</g>
<g>
</g>
<g>
</g>
<g>
</g>
<g>
</g>
<g>
</g>
<g>
</g>
<g>
</g>
<g>
</g>
<g>
</g>
<g>
</g>
<g>
</g>
<g>
</g>
<g>
</g>
</svg>
